<?xml version="1.0" encoding="UTF-8" standalone="no"?>
<svg
   xmlns:dc="http://purl.org/dc/elements/1.1/"
   xmlns:cc="http://creativecommons.org/ns#"
   xmlns:rdf="http://www.w3.org/1999/02/22-rdf-syntax-ns#"
   xmlns:svg="http://www.w3.org/2000/svg"
   xmlns="http://www.w3.org/2000/svg"
   version="1.1"
   id="svg51"
   width="758"
   height="418"
   viewBox="0 0 758 418">
  <metadata
     id="metadata57">
    <rdf:RDF>
      <cc:Work
         rdf:about="">
        <dc:format>image/svg+xml</dc:format>
        <dc:type
           rdf:resource="http://purl.org/dc/dcmitype/StillImage" />
        <dc:title></dc:title>
      </cc:Work>
    </rdf:RDF>
  </metadata>
  <defs
     id="defs55" />
  <g
     id="g59">
    <g
       id="g99"
       transform="matrix(0.58809099,0,0,0.58809099,-252.06333,292.4438)">
      <path
         style="fill:#7a7a7a;fill-opacity:1"
         d="m 352.21416,319.62722 c -2.15699,-1.06368 -2.84235,-4.86524 -0.82596,-4.58142 0.4885,0.0688 1.26911,-0.47591 1.73468,-1.21039 1.12892,-1.78096 1.11706,-9.83541 -0.0145,-9.83541 -0.49038,0 -1.17682,-1.13645 -1.52544,-2.52544 -0.34861,-1.38899 -1.50462,-3.39621 -2.56891,-4.4605 -1.06428,-1.06428 -2.08835,-3.07972 -2.27571,-4.47875 -0.18735,-1.39903 -2.03211,-4.27591 -4.09946,-6.39307 -3.11575,-3.19082 -3.85712,-4.76383 -4.33344,-9.1945 -0.91961,-8.55415 -1.60962,-8.83647 -22.30545,-9.12616 -9.625,-0.13472 -20.9395,-0.26219 -25.14333,-0.28327 -5.59321,-0.028 -8.14134,-0.47509 -9.5,-1.66672 -1.31693,-1.15503 -4.7637,-1.81504 -11.85667,-2.2704 -5.5,-0.35309 -10.45,-0.61215 -11,-0.57569 -0.55,0.0365 -3.5964,0.31281 -6.76977,0.61409 l -5.76977,0.5478 -6.37836,-6.34707 c -3.6475,-3.6296 -6.52901,-7.41162 -6.73023,-8.83348 -0.22074,-1.55981 -1.0972,-2.60259 -2.35187,-2.79817 -1.1,-0.17147 -3.05773,-0.83882 -4.35052,-1.48299 -1.97911,-0.98617 -2.56599,-0.87655 -3.7142,0.69372 -0.75003,1.02572 -1.30631,3.39123 -1.23618,5.25668 0.0957,2.54653 -0.64949,4.19339 -2.99052,6.60872 -2.4311,2.50826 -3.21903,4.32841 -3.57647,8.26176 -0.5448,5.99535 -4.02541,12.45344 -6.7118,12.45344 -2.72167,0 -3.1103,2.79503 -2.74443,19.73794 0.22441,10.39192 -0.0291,15.34009 -0.82392,16.08069 -0.63144,0.58839 -1.36269,1.65739 -1.625,2.37558 -0.39094,1.07035 -0.72485,1.07183 -1.85193,0.008 -0.99593,-0.93987 -1.51284,-5.35082 -1.875,-16 -0.49218,-14.4725 -1.90793,-21.3401 -2.99354,-14.52124 -0.43915,2.75839 -0.72676,3.01851 -2.16414,1.95726 -1.37618,-1.01606 -1.69048,-3.4242 -1.8509,-14.18116 C 191.70668,254.3638 191.7123,254.3085 194,253.71025 c 2.75546,-0.72057 2.89793,-8.94902 0.18879,-10.90355 -2.75855,-1.99017 -3.62226,-3.92077 -2.15873,-4.82528 1.02245,-0.63191 0.92104,-1.56471 -0.49443,-4.54757 -1.56248,-3.29269 -1.76256,-6.56989 -1.63254,-26.7404 l 0.14818,-22.98782 2.97437,-3.38761 c 1.83769,-2.09301 3.03094,-4.61632 3.12242,-6.60282 0.0814,-1.76836 0.19393,-4.03611 0.25,-5.03945 0.20152,-3.60622 7.60194,-6.61666 7.60194,-3.09242 0,1.7406 0.13073,1.7113 4.57485,-1.02536 C 212.3532,162.23128 216,156.85566 216,153.6128 c 0,-1.72753 1.05936,-3.04028 3.72044,-4.61036 5.42657,-3.20176 14.21825,-5.69395 19.32651,-5.47853 4.9047,0.20684 9.36801,-0.83254 15.45809,-3.59974 2.56262,-1.16439 6.88443,-1.91145 12,-2.07428 4.39723,-0.13997 9.15838,-0.83446 10.58034,-1.54331 1.74671,-0.87074 7.58571,-1.31725 18,-1.37648 13.44056,-0.0764 15.98799,0.17105 19.89179,1.93257 2.46244,1.11113 4.71244,1.66364 5,1.22781 0.587,-0.88968 4.66516,-1.99173 10.27283,-2.77605 2.0625,-0.28848 3.75,-0.855 3.75,-1.25895 0,-1.79227 5.77794,-3.00193 17.43141,-3.64941 8.629,-0.47943 12.91819,-1.12239 13.68981,-2.05213 1.46991,-1.77114 15.55094,-1.74713 22.32843,0.0381 4.35529,1.14719 5.67548,1.08398 10.99408,-0.52636 3.32443,-1.00656 6.18336,-2.24693 6.35318,-2.75638 0.16981,-0.50944 2.87248,-2.16906 6.00592,-3.68802 3.13344,-1.51897 6.02778,-3.24764 6.43186,-3.8415 0.40408,-0.59386 0.74158,-0.68715 0.75,-0.20731 0.008,0.47985 0.69531,0.3081 1.52643,-0.38167 1.96376,-1.62977 7.14509,-4.63965 11.20281,-6.5078 1.76767,-0.81382 3.696,-2.38041 4.28519,-3.48132 0.58918,-1.10091 1.9299,-2.00165 2.97936,-2.00165 1.04946,0 2.62132,-1.0125 3.49301,-2.25 2.81613,-3.997933 3.64868,-0.44231 2.92686,12.5 -0.49397,8.85686 -0.35887,11.75 0.54869,11.75 0.8018,0 1.11132,-1.5074 0.92653,-4.51233 -0.19829,-3.22452 0.21675,-5.00657 1.45427,-6.24408 1.64233,-1.64233 1.75897,-1.62763 2.25906,0.28471 0.46709,1.78617 1.12035,1.9568 5.72021,1.49408 L 460.5,117.5 l -0.1707,-7 c -0.0939,-3.85 -0.47466,-8.87063 -0.84616,-11.156954 -0.66635,-4.100892 -0.73823,-4.162723 -5.3293,-4.584659 -2.55961,-0.235238 -5.29488,-0.102765 -6.07838,0.294383 -0.7835,0.397149 -3.36189,0.0041 -5.72977,-0.873544 -3.64552,-1.351125 -4.84916,-1.398947 -7.85482,-0.312086 -5.20937,1.883732 -19.40203,1.163448 -20.58499,-1.044698 -0.49429,-0.922657 -0.64155,-2.347709 -0.32724,-3.166783 0.88773,-2.313376 7.75166,-6.439762 12.04587,-7.24161 5.73079,-1.070096 17.50223,-6.26394 20.43021,-9.014303 C 447.45981,72.079886 449.59731,71 450.80472,71 452.01212,71 453,70.377484 453,69.616631 c 0,-2.305343 9.18652,-3.741882 10.48574,-1.639704 0.33208,0.53731 0.10275,2.837589 -0.50961,5.111733 -1.00629,3.737077 -0.90589,4.328118 1.04375,6.14449 1.7631,1.642573 2.03288,2.672104 1.47685,5.635976 -0.37416,1.99446 -1.17256,3.930525 -1.77421,4.302367 -0.76901,0.475274 -0.70538,1.144229 0.21423,2.252292 0.96444,1.162088 3.1808,1.580203 8.43569,1.591396 8.39275,0.01788 15.99187,2.014113 16.44638,4.320357 0.30962,1.57099 -1.56184,3.780022 -7.12299,8.407852 -1.98874,1.65497 -2.69583,3.16313 -2.69583,5.75 0,1.92863 0.45,3.50661 1,3.50661 0.55,0 1,0.61652 1,1.37004 0,0.78228 2.0378,1.93702 4.75,2.69163 2.6125,0.72688 6.32463,2.24786 8.24918,3.37996 3.02433,1.77904 5.80629,2.13919 20.5,2.65396 12.51501,0.43844 17.96729,1.02605 20.66364,2.22699 5.12285,2.2817 23.63538,2.5085 26.97247,0.33045 1.30059,-0.84887 5.28971,-1.99896 8.86471,-2.55576 6.97312,-1.08603 24.52931,-1.61006 27,-0.80591 7.5032,2.44211 11.51108,4.27779 13.63266,6.24401 2.45132,2.2718 2.46198,2.34361 0.50357,3.39172 -1.10043,0.58893 -2.27066,1.85876 -2.60052,2.82185 -0.97296,2.84075 -8.28427,7.25486 -13.11282,7.91668 -2.46262,0.33754 -4.71676,1.00086 -5.00921,1.47405 C 591.12124,146.61285 588.43352,147 585.44098,147 582.44844,147 580,147.43262 580,147.96139 c 0,0.57049 -8.43689,1.1361 -20.75,1.39108 -31.0093,0.64215 -38.25,1.71101 -38.25,5.64641 0,0.96592 -0.5625,2.22168 -1.25,2.79057 -0.89548,0.74099 -1.10819,3.39644 -0.75,9.36285 0.44024,7.33315 0.73902,8.37187 2.5,8.69134 2.98429,0.5414 5.12139,2.80781 9.01691,9.56246 1.93294,3.35165 4.48824,7.32201 5.67843,8.82302 1.67254,2.10934 2.11169,3.87535 1.93369,7.77629 -0.20295,4.44769 0.13204,5.4095 2.82034,8.0978 1.67784,1.67785 3.05063,3.22057 3.05063,3.42826 0,0.90223 -5.50361,5.76136 -9.08925,8.02487 -2.15091,1.35781 -3.91075,2.85884 -3.91075,3.33562 0,0.47678 -1.7995,2.72114 -3.99889,4.98746 C 523.69033,233.29095 522.34439,234 519.17925,234 515.16237,234 506,236.69631 506,237.87839 c 0,1.6115 -6.15462,4.12006 -11.61206,4.73296 -3.23837,0.36368 -6.33794,0.98847 -6.88794,1.38842 -0.55,0.39996 -2.93215,1.02208 -5.29367,1.38251 -2.36153,0.36043 -5.06153,1.04436 -6,1.51985 -5.53919,2.80649 -12.21825,4.70814 -22.20633,6.32257 -3.575,0.57785 -7.57319,1.88868 -8.88486,2.91297 -1.31167,1.02428 -3.81465,1.86233 -5.56217,1.86233 -1.74752,0 -5.0401,0.9 -7.31683,2 -2.44973,1.18358 -6.18604,2 -9.15289,2 -2.75734,0 -6.94158,0.62642 -9.2983,1.39205 -2.35672,0.76563 -6.13368,1.61426 -8.39324,1.88584 -2.25956,0.27158 -5.63456,1.20059 -7.5,2.06446 -1.86544,0.86387 -5.15133,1.70274 -7.30197,1.86416 -3.00651,0.22566 -3.97589,0.74941 -4.19419,2.26609 -0.15616,1.08494 -0.89943,2.43494 -1.65171,3 -0.75228,0.56507 -1.66327,1.8149 -2.02443,2.7774 C 381.74417,279.8491 380,279.36807 380,276.5 c 0,-3.08676 -0.6986,-3.14039 -3.25689,-0.25 -1.87038,2.11318 -1.95583,3.23557 -1.40512,18.45717 0.58415,16.14574 0.57746,16.21418 -1.76532,18.05701 -1.29343,1.01741 -2.52075,2.72418 -2.72737,3.79283 -0.29149,1.5075 -1.06257,1.87407 -3.44032,1.63547 -1.87059,-0.1877 -3.56825,0.29932 -4.35725,1.25 -1.49001,1.79536 -7.36431,1.89553 -10.83357,0.18474 z M 392.35024,194.5809 c 0.82232,0.31556 2.41847,-0.34961 3.54701,-1.47815 1.12853,-1.12853 3.30082,-2.35037 4.82731,-2.7152 1.52649,-0.36483 3.22544,-1.00348 3.77544,-1.41921 0.55,-0.41574 5.5,-1.23684 11,-1.82467 13.03096,-1.39272 13.68626,-2.08386 13.28666,-14.01332 -0.28453,-8.49383 -0.31196,-8.57457 -3.68454,-10.84395 C 422.9261,160.82218 420.21924,160 417.57462,160 413.60096,160 409,162.14984 409,164.00657 c 0,2.50235 -6.60386,10.25828 -10.33713,12.14048 -5.07304,2.55767 -4.75413,2.27487 -5.08724,4.51132 -0.16118,1.08214 -1.11391,1.85495 -2.31019,1.87392 -1.11973,0.0178 -2.7922,0.65999 -3.71659,1.42717 -1.94484,1.61407 -4.54885,6.33897 -4.54885,8.25375 0,1.83461 4.14804,3.58274 6.17756,2.60344 0.92265,-0.44521 2.35036,-0.5513 3.17268,-0.23575 z m -100.29126,-1.41438 c 3.60743,-0.40193 7.20743,-1.2686 8,-1.92593 0.79256,-0.65733 3.58286,-2.98544 6.20066,-5.17357 2.6178,-2.18814 5.3178,-4.33586 6,-4.77273 C 313.82032,180.29487 319,169.52672 319,167.2816 c 0,-0.92076 -1.1862,-3.38579 -2.636,-5.47785 C 313.74933,158.03079 313.67302,158 306.93543,158 299.81807,158 297,159.37839 297,162.85967 c 0,0.94424 -2.06616,3.4439 -4.59146,5.55479 -5.14922,4.30421 -8.39921,9.02826 -8.4048,12.21685 -0.002,1.2427 -1.41085,3.20456 -3.37865,4.70548 -3.04948,2.32595 -5.14924,6.80572 -3.81526,8.13971 0.7095,0.7095 7.3017,0.5755 15.24915,-0.30998 z M 510,251.53731 c -2.85763,-1.07001 -3.17552,-1.44402 -1.73204,-2.0378 1.78227,-0.73316 7.31586,1.01809 8.31251,2.6307 0.76394,1.23608 -2.47533,0.94422 -6.58047,-0.5929 z M 566.06784,91.04193 c -0.76256,-0.471289 -1.94582,-0.642249 -2.62946,-0.379911 -1.79236,0.687795 -10.08981,-3.311287 -10.82035,-5.215031 C 551.4414,82.380731 551.97802,81 554.34636,81 c 1.2905,0 3.77332,-0.711858 5.51737,-1.581907 2.94999,-1.471649 3.39632,-1.450399 6.40364,0.304873 2.23,1.301581 3.26329,2.676465 3.33149,4.432854 0.0544,1.400341 0.38127,3.003007 0.72642,3.56148 0.95915,1.551937 -2.61266,4.341159 -4.25744,3.32463 z"
         id="path105" />
      <path
         style="fill:#575757;fill-opacity:1"
         d="m 194.72046,281.66821 c -0.98243,-2.49786 -0.91785,-27.41853 0.0721,-27.83488 0.43593,-0.18333 1.73767,-1.90833 2.89277,-3.83333 2.43965,-4.06577 1.6557,-8 -1.59412,-8 -2.75064,0 -3.62989,-1.88992 -1.75261,-3.7672 1.3137,-1.3137 1.35009,-1.7544 0.21913,-2.65404 -1.00202,-0.79708 -1.66596,-7.02252 -2.54268,-23.84156 -1.2966,-24.87401 -0.93742,-30.30968 2.06577,-31.26286 1.98342,-0.62952 2.26886,-1.39174 1.95779,-5.22807 -0.10326,-1.27337 0.51317,-2.52079 1.41709,-2.86765 0.8799,-0.33766 2.08222,-1.51528 2.67182,-2.61695 0.77435,-1.44688 0.76663,-1.8143 -0.0278,-1.32333 -0.60683,0.37504 -1.09977,0.0289 -1.09977,-0.77233 0,-1.55427 2.41062,-2.92206 3.40223,-1.93044 0.32878,0.32877 0.6333,1.53526 0.67672,2.6811 0.0434,1.14583 0.30592,1.52083 0.58333,0.83333 0.27741,-0.6875 1.11953,-1.25 1.87136,-1.25 0.75184,0 1.72684,-0.56323 2.16667,-1.25163 0.43983,-0.6884 2.03719,-1.88944 3.54969,-2.66898 1.5125,-0.77954 2.75,-1.79428 2.75,-2.25498 0,-0.4607 1.11817,-1.80987 2.48482,-2.99816 1.79747,-1.56288 2.3589,-2.87525 2.02961,-4.74434 -0.36237,-2.05686 0.21421,-3.04251 2.82706,-4.83286 1.80525,-1.23698 4.40192,-2.24905 5.77039,-2.24905 1.36847,0 2.92496,-0.43684 3.45886,-0.97074 0.53391,-0.53391 4.7522,-1.23498 9.37398,-1.55793 4.62177,-0.32295 9.22494,-1.02694 10.22925,-1.56444 C 251.17829,142.3694 252,142.24021 252,142.6198 c 0,0.3796 0.7875,-0.001 1.75,-0.84653 2.49206,-2.18833 4.7584,-2.6852 13.25,-2.90493 4.125,-0.10674 7.95,-0.51402 8.5,-0.90506 1.80651,-1.28441 9.79465,-2.00852 22.82947,-2.06944 10.35994,-0.0484 13.16619,0.24475 14.57874,1.52309 2.18448,1.97693 4.66613,1.99735 10.09179,0.0831 2.3383,-0.825 5.5631,-1.5 7.16622,-1.5 1.60312,0 4.2134,-0.96012 5.80061,-2.1336 1.80422,-1.33392 4.69379,-2.23399 7.70951,-2.40144 11.76942,-0.65352 21.41028,-1.7961 21.90465,-2.596 0.82022,-1.32715 20.16729,-1.08527 21.00028,0.26254 0.94231,1.52468 12.43932,0.42634 16.26936,-1.55426 1.59885,-0.8268 3.17242,-2.19491 3.4968,-3.04025 0.32439,-0.84535 1.24195,-1.53699 2.03902,-1.53699 1.84269,0 12.00202,-5.0345 12.45078,-6.17004 0.18547,-0.46933 3.31381,-2.2889 6.95185,-4.0435 3.63805,-1.7546 7.31873,-3.88684 8.17928,-4.73832 1.47082,-1.4553 6.62248,-5.04563 7.24646,-5.05025 0.15685,-10e-4 0.14228,4.79709 -0.0324,10.66277 -0.38993,13.09552 -0.0438,14.57573 3.74225,16.00482 2.63517,0.99466 3.07824,0.9006 3.60713,-0.76577 0.33162,-1.04484 1.2506,-1.89971 2.04217,-1.89971 0.79158,0 2.4174,-1.125 3.61295,-2.5 1.19555,-1.375 2.91757,-2.5 3.82672,-2.5 0.90915,0 1.9748,-0.3218 2.36811,-0.71512 0.39332,-0.39331 2.83082,-1.25638 5.41667,-1.91792 6.107,-1.56235 12.08615,-0.43672 21.4656,4.0411 3.97977,1.89997 9.15036,3.7503 11.4902,4.11183 2.33984,0.36154 4.00819,1.05547 3.70745,1.54208 -0.96789,1.56607 3.41778,4.37105 8.80172,5.62939 3.05042,0.71295 12.68714,1.24159 23.08313,1.26627 L 554.1931,136 l 4.41767,-3.88859 c 5.02225,-4.42076 6.58344,-4.78325 26.03368,-6.04472 12.17151,-0.78939 13.05253,-0.71472 19.29664,1.63556 3.59855,1.35449 6.83927,2.94236 7.20159,3.52861 0.36232,0.58624 -0.19656,1.98398 -1.24196,3.10608 -1.0454,1.1221 -1.90073,2.29283 -1.90075,2.60162 -2e-5,0.30879 -1.53228,1.78403 -3.40504,3.2783 -3.45302,2.75517 -14.62123,5.78063 -21.34493,5.78232 C 581.4625,145.99963 580,146.45 580,147 c 0,0.63492 -7.66667,1 -21,1 -14.93112,0 -21,0.32623 -21,1.12883 0,0.77698 -1.56487,0.92124 -5.02054,0.46283 C 527.12658,148.81525 521,151.06543 521,153.9915 c 0,0.96998 -0.675,2.32381 -1.5,3.0085 -1.11511,0.92546 -1.5,3.39658 -1.5,9.63054 v 8.38565 l 3.88858,1.55591 c 3.09761,1.23941 4.2215,2.42761 5.52522,5.84136 0.90015,2.357 3.27026,6.19399 5.26692,8.52663 2.9212,3.41277 3.71184,5.24892 4.04781,9.40054 0.46146,5.70211 1.98158,10.43846 4.01818,12.51974 1.1132,1.13761 0.71076,1.90857 -2.45777,4.70837 -2.08392,1.8414 -4.11717,3.36674 -4.51834,3.38963 -0.40118,0.0229 -2.59599,2.06663 -4.87736,4.54163 -2.28138,2.475 -4.96409,4.5 -5.96158,4.5 -0.9975,0 -2.09174,0.45 -2.43166,1 -0.33992,0.55 -1.68718,1 -2.99392,1 -1.30673,0 -3.64268,0.52017 -5.19098,1.15593 -1.54831,0.63577 -3.2651,1.20336 -3.8151,1.26132 -2.22835,0.23484 -7.5,3.72158 -7.5,4.9606 0,1.26625 -1.76066,1.70722 -18.97097,4.75147 -3.00904,0.53225 -5.70904,1.32853 -6,1.7695 -0.95154,1.44211 -4.44745,2.81451 -8.9058,3.49617 -2.40722,0.36805 -5.31985,1.32975 -6.47251,2.1371 -1.22001,0.85453 -4.37255,1.46791 -7.54449,1.46791 -3.55405,0 -6.05359,0.54737 -7.18814,1.57413 -0.95667,0.86577 -4.14211,1.90289 -7.07875,2.30471 -2.93663,0.40181 -6.46434,1.44416 -7.83934,2.31633 -1.422,0.90197 -5.6199,1.79056 -9.7354,2.06073 -3.97946,0.26123 -7.9095,1.03443 -8.7334,1.71821 -0.82391,0.68378 -3.79749,1.40733 -6.60796,1.60789 -2.81048,0.20057 -6.48708,1.05166 -8.17023,1.89133 -4.32192,2.15605 -10.38732,1.9158 -14.41076,-0.57082 -3.13841,-1.93965 -4.38901,-2.05558 -16.61803,-1.5405 -15.82969,0.66673 -21.7158,1.43444 -23.72422,3.09431 -2.55019,2.10761 -4.69056,2.44872 -6.66916,1.06285 -1.41404,-0.99043 -8.29483,-1.43839 -26.95334,-1.75476 -21.32247,-0.36153 -25.40968,-0.67354 -27.43854,-2.09461 C 280.15103,263.41748 277.35704,263 270.76392,263 c -4.90816,0 -9.60715,-0.50966 -10.63873,-1.15389 -1.46013,-0.91187 -2.34295,-0.80699 -4.20894,0.5 -2.43324,1.70431 -9.91625,2.31321 -9.91625,0.8069 0,-0.78302 -0.8204,-1.8832 -5.08476,-6.8188 -0.87161,-1.00882 -2.73919,-2.73421 -4.15016,-3.83421 -1.41098,-1.1 -2.72284,-3.125 -2.91525,-4.5 -0.25244,-1.80399 -1.04584,-2.58118 -2.84983,-2.7916 -1.375,-0.16038 -3.4,-0.68532 -4.5,-1.16653 -1.1,-0.48122 -2.97853,-1.08648 -4.1745,-1.34504 -2.02918,-0.43869 -2.15904,-0.13331 -1.94301,4.56918 0.18943,4.12363 -0.2302,5.6021 -2.30941,8.13664 -1.39749,1.70354 -2.93822,3.3814 -3.42382,3.72857 -0.48561,0.34718 -1.19081,3.49718 -1.56712,7 C 212.3447,272.99572 210.45413,277 207.95058,277 c -0.86258,0 -2.44183,0.66069 -3.50945,1.4682 -1.06762,0.8075 -3.37063,1.4825 -5.11781,1.5 -2.2081,0.0221 -3.28426,0.56538 -3.52954,1.7818 -0.32801,1.62672 -0.40362,1.62096 -1.07332,-0.0818 z M 396.45125,194.04046 C 397.30306,193.33352 398,193.07797 398,193.47258 c 0,0.3946 1.99263,-0.4503 4.42807,-1.87756 3.62728,-2.12573 5.69631,-2.59502 11.44098,-2.59502 3.85711,0 7.29103,-0.45 7.63095,-1 0.33992,-0.55 1.45147,-1 2.47012,-1 1.01865,0 3.01709,-1.38453 4.44099,-3.07673 2.26566,-2.69259 2.58889,-3.98442 2.58889,-10.34699 0,-8.0304 -1.02332,-10.00489 -6.70034,-12.92827 -3.57913,-1.84307 -10.447,-2.17471 -13.30959,-0.64269 -1.03315,0.55292 -3.34997,3.76616 -5.14849,7.14053 -2.33909,4.38858 -4.16165,6.50776 -6.40186,7.44378 -1.72249,0.71971 -4.21359,2.44869 -5.53576,3.84219 -1.32218,1.39349 -3.07896,2.54951 -3.90396,2.56893 -2.45327,0.0577 -8,7.52178 -8,10.76533 0,1.59532 0.32306,3.22364 0.71791,3.61849 1.13973,1.13974 12.02407,0.0745 13.73334,-1.34411 z m -95.8868,-2.13539 C 301.6999,190.85728 303.09669,190 303.66843,190 c 0.57174,0 2.18673,-1.0125 3.58886,-2.25 1.40214,-1.2375 3.69704,-3.15 5.09978,-4.25 1.40275,-1.1 2.57126,-2.7875 2.59669,-3.75 0.0254,-0.9625 0.94624,-2.65 2.04624,-3.75 1.1,-1.1 2,-2.675 2,-3.5 0,-0.825 0.45,-1.5 1,-1.5 0.55,0 0.99386,-1.0125 0.98635,-2.25 -0.0226,-3.71742 -1.14034,-6.75 -2.48797,-6.75 -0.6976,0 -2.01718,-1.14284 -2.9324,-2.53965 -1.58722,-2.4224 -2.04105,-2.52628 -9.83034,-2.25 -8.11708,0.2879 -8.17163,0.30773 -9.05086,3.28965 -0.48651,1.65 -2.59,4.35 -4.67444,6 -2.08443,1.65 -4.84571,4.6875 -6.13618,6.75 -1.29046,2.0625 -2.69007,3.75 -3.11023,3.75 -0.42016,0 -0.76393,1.52252 -0.76393,3.38337 0,2.48185 -0.50577,3.51563 -1.89815,3.87975 -2.01259,0.5263 -4.46875,3.80997 -5.5393,7.40555 -0.88482,2.9718 0.81606,3.31003 13.43745,2.67215 8.44665,-0.42689 10.90372,-0.90322 12.56445,-2.43575 z M 310.51801,143 c 0.69741,0 1.52703,-0.675 1.84362,-1.5 0.45608,-1.18854 -0.30035,-1.49682 -3.64301,-1.48469 -4.8277,0.0175 -7.31744,1.20676 -6.22546,2.97363 0.46633,0.75452 1.88402,0.98562 3.75312,0.6118 C 307.89833,143.27033 309.82061,143 310.51801,143 Z M 444.94612,93.945537 c -0.79537,-0.503201 -7.87274,-0.921802 -15.7275,-0.930224 -12.32121,-0.01321 -14.36801,-0.241042 -14.91248,-1.659921 -0.39238,-1.022521 0.0923,-2.144394 1.28138,-2.965894 1.05186,-0.726707 2.36248,-1.696825 2.91248,-2.155818 1.51203,-1.261834 4.70697,-2.498708 7.5,-2.903515 2.31285,-0.335212 11.0146,-3.579593 18.75,-6.990795 C 446.5375,75.551107 448,74.477278 448,73.953083 448,73.428887 449.15156,73 450.55902,73 c 1.40746,0 2.32003,0.38668 2.02794,0.859288 -0.29208,0.472609 1.29573,1.576874 3.52848,2.453924 2.23275,0.877049 3.79455,2.023403 3.47067,2.547453 -0.32886,0.532121 0.25699,0.731619 1.32689,0.451835 3.20964,-0.83934 4.24723,2.614503 2.1746,7.238661 -1.98544,4.429645 -4.92175,6.356022 -10.0876,6.618006 -1.925,0.09763 -4.19925,0.518102 -5.05388,0.934392 -0.85464,0.41629 -2.20464,0.34518 -3,-0.158022 z M 563,89.090476 c -2.58808,-0.369403 -5.6684,-1.66387 -7.25,-3.046722 -4.43919,-3.881348 -3.91071,-4.196156 7.07571,-4.214889 6.89158,-0.01175 8.03531,0.428749 6.35864,2.449005 -0.60536,0.729411 -0.842,2.315286 -0.52587,3.524166 0.31613,1.20888 0.1848,2.137838 -0.29185,2.064351 C 567.88998,89.7929 565.475,89.44374 563,89.090476 Z"
         id="path103" />
      <path
         style="fill:#333333;fill-opacity:1"
         d="m 384.52544,264.32015 -4.97455,-2.58673 -19.52545,0.86468 c -10.73899,0.47557 -22.22544,0.84579 -25.52544,0.82271 -38.27768,-0.26778 -48.98673,-0.67315 -53.54516,-2.02686 -3.25553,-0.96679 -7.36954,-1.30056 -12.03626,-0.97649 -4.32291,0.30019 -7.78308,0.0596 -8.8656,-0.61645 -1.36963,-0.85534 -2.31521,-0.73074 -4.13673,0.5451 -4.12309,2.88792 -6.96654,2.0672 -13.15304,-3.79644 -3.15523,-2.99057 -6.68934,-7.2649 -7.85357,-9.49852 -2.51626,-4.82756 -3.35182,-5.4627 -5.56045,-4.22669 -1.19619,0.66942 -2.25696,0.3964 -3.75792,-0.96722 C 218.50965,235.4236 216.61562,234 215.13759,234 c -1.97027,0 -11.15179,-7.98631 -11.14343,-9.69284 0.003,-0.65606 -0.90312,-2.73341 -2.01407,-4.61633 -1.11095,-1.88292 -1.79068,-4.04614 -1.5105,-4.80716 0.75139,-2.04097 -1.02754,-4.26728 -2.85073,-3.56766 -0.90502,0.34729 -1.90569,2.44404 -2.33647,4.89572 -0.68218,3.88242 -0.82746,3.38917 -1.53503,-5.21173 -0.42985,-5.225 -0.84029,-13.66183 -0.91208,-18.74852 -0.12464,-8.8314 -0.009,-9.36087 2.5577,-11.73987 2.1485,-1.99117 2.48636,-2.86855 1.6828,-4.37001 C 195.91583,173.97421 196.56422,173 199.16667,173 200.175,173 201,172.55 201,172 c 0,-0.55 0.94754,-1 2.10564,-1 1.15811,0 3.44621,-1.12801 5.08468,-2.50669 1.63846,-1.37867 3.3941,-2.25015 3.90141,-1.93661 0.50732,0.31353 1.2291,-0.24596 1.60395,-1.24332 0.37486,-0.99736 1.94668,-3.00642 3.49294,-4.46459 1.90663,-1.79801 2.81138,-3.64845 2.81138,-5.75 0,-3.56969 3.38356,-7.54932 5.67196,-6.67118 0.83452,0.32024 3.38723,-0.23567 5.67268,-1.23536 2.28545,-0.99969 6.63036,-1.93804 9.65536,-2.08523 3.025,-0.14719 7.975,-1.18563 11,-2.30763 3.025,-1.12201 9.325,-2.32337 14,-2.6697 4.675,-0.34633 8.95,-0.90991 9.5,-1.2524 0.55,-0.34248 8.3125,-0.93995 17.25,-1.32769 12.28387,-0.53292 16.25,-0.41479 16.25,0.484 0,0.81724 -1.0943,0.98369 -3.5,0.53238 -2.66537,-0.50003 -3.5,-0.31791 -3.5,0.76371 0,0.78584 -1.37373,1.69506 -3.07524,2.03536 -2.24139,0.44828 -2.98075,1.09225 -2.72677,2.375 0.25527,1.28922 1.27839,1.74554 3.82524,1.70608 5.19922,-0.0806 11.16424,-1.14907 11.861,-2.12466 1.19327,-1.67078 6.69657,-3.59112 14.022,-4.89289 4.07343,-0.72387 7.67343,-1.6978 8,-2.16429 0.77675,-1.10954 7.71575,-3.23478 11.84771,-3.62866 1.78967,-0.1706 3.55217,-0.60841 3.91667,-0.97291 C 350.03511,131.29823 353.55833,131 357.5,131 c 3.94167,0 7.44861,-0.28195 7.79321,-0.62655 1.18502,-1.18501 15.21284,-1.35416 20.28154,-0.24456 3.80645,0.83328 6.86897,0.8083 12.25379,-0.1 6.27673,-1.05871 7.25502,-1.51368 7.78365,-3.61991 0.36803,-1.46633 1.33324,-2.40901 2.46658,-2.40901 2.54117,0 12.64413,-4.70434 13.62649,-6.34503 0.43711,-0.73004 3.49474,-2.57541 6.79474,-4.10082 3.3,-1.52541 7.4625,-3.4504 9.25,-4.27775 1.7875,-0.82736 3.25,-2.20301 3.25,-3.05701 0,-0.854 0.27971,-1.27302 0.62157,-0.93115 0.34187,0.34187 0.4716,5.70437 0.2883,11.91667 -0.46341,15.70558 -0.0732,23.07613 1.26557,23.90352 1.87358,1.15793 3.87686,-0.18506 3.68892,-2.47305 -0.32848,-3.99886 0.13362,-5.63538 1.59123,-5.63538 0.80058,0 3.07332,-1.09782 5.05053,-2.43959 3.79724,-2.57688 9.49576,-4.04965 20.99143,-5.42519 8.01206,-0.9587 12.4991,-0.0461 15.75459,3.20431 1.23632,1.23439 4.3893,3.28003 7.00662,4.54586 4.18921,2.02605 4.73226,2.64938 4.5373,5.20806 -0.12648,1.6598 -0.79897,2.90655 -1.56778,2.90655 -0.74047,0 -1.0682,0.45 -0.72828,1 0.33992,0.55 2.39148,1 4.55902,1 2.27704,0 3.94098,0.48002 3.94098,1.13691 0,1.11101 6.15646,0.81687 16.43007,-0.78499 4.22336,-0.65851 10.9468,2.00661 10.26671,4.06963 -0.19553,0.59315 -3.06684,1.21072 -6.38069,1.37239 -6.48852,0.31655 -5.79275,-0.27103 -9.71706,8.20606 -0.68175,1.47269 -1.01412,5.7874 -0.80884,10.5 l 0.34849,8 3.93066,1.67574 c 2.24912,0.95885 3.93066,2.36343 3.93066,3.28324 0,2.32426 4.84586,11.54102 6.06787,11.54102 1.5328,0 3.93213,6.41166 3.93213,10.50772 0,1.96458 0.88797,5.31253 1.97328,7.4399 l 1.97327,3.86794 -3.97615,3.59222 C 533.78351,219.3835 531.4684,221 530.8257,221 c -0.64269,0 -3.08335,1.99841 -5.42367,4.44091 -3.04814,3.18121 -5.33969,4.62443 -8.07859,5.08789 -2.10289,0.35584 -5.24145,1.28243 -6.97457,2.05909 -1.73312,0.77666 -3.84406,1.41211 -4.69098,1.41211 -0.84692,0 -1.79657,0.41538 -2.11034,0.92306 -0.31377,0.50769 -1.91925,1.21931 -3.56774,1.58138 -1.68974,0.37112 -2.71945,1.10782 -2.36042,1.68874 0.94732,1.53279 -1.63658,2.77419 -5.81037,2.79151 -2.03004,0.008 -3.9691,0.46531 -4.30902,1.01531 -0.33992,0.55 -1.94368,1 -3.56392,1 -1.62024,0 -5.30618,1.1555 -8.19098,2.56778 -2.88481,1.41227 -6.6464,2.7118 -8.35911,2.88784 -1.7127,0.17603 -4.1877,1.01114 -5.5,1.8558 -1.31229,0.84465 -5.27745,1.741 -8.81145,1.99187 -4.3635,0.30975 -6.80566,0.97609 -7.61024,2.07642 -0.81178,1.11018 -2.72421,1.62147 -6.07454,1.62403 -2.98808,0.002 -6.06699,0.72164 -7.91674,1.84967 -1.86961,1.14014 -5.77659,2.04268 -10.21829,2.36048 -3.95522,0.28299 -8.21807,1.18663 -9.47302,2.00809 -1.25494,0.82146 -5.31448,1.81788 -9.02119,2.21426 -3.70671,0.39638 -6.99577,1.13538 -7.30902,1.64223 -1.0239,1.6567 -5.85319,0.87953 -10.92606,-1.75832 z m -90.19569,-68.47183 c 4.91258,-0.13661 6.07128,-0.53074 7.36501,-2.50522 0.84439,-1.2887 2.36255,-2.3431 3.37369,-2.3431 2.30827,0 10.75882,-8.4636 11.53388,-11.5517 0.31799,-1.26697 1.18903,-2.53799 1.93563,-2.82449 2.60564,-0.99988 4.53157,-6.33683 3.84228,-10.64739 -0.49706,-3.10843 -1.31694,-4.40945 -3.48545,-5.53083 -1.55953,-0.80646 -3.31467,-2.36163 -3.90033,-3.45594 -1.16209,-2.17138 -4.29261,-2.47697 -13.74446,-1.34167 -3.45219,0.41466 -5.25,1.09656 -5.25,1.99131 0,0.74839 -0.675,1.36071 -1.5,1.36071 -0.89828,0 -1.5,0.92206 -1.5,2.29855 0,2.07267 -3.37299,6.48394 -10.50531,13.7391 -1.37208,1.39571 -2.50246,3.19571 -2.51197,4 -0.009,0.80429 -1.1345,2.52208 -2.5,3.81731 -1.36549,1.29523 -2.48272,3.05979 -2.48272,3.92126 0,0.86146 -0.68585,2.32415 -1.52411,3.25042 -0.83826,0.92627 -1.25418,2.38756 -0.92426,3.24732 0.79366,2.06824 6.95571,3.70069 11.94837,3.16536 2.2,-0.23589 6.62339,-0.50184 9.82975,-0.591 z m 98.03471,0.17969 c 3.22545,-0.52823 7.72545,-1.85595 10,-2.95049 2.27455,-1.09455 7.28554,-2.27657 11.13554,-2.62672 8.31782,-0.75649 14.78298,-3.42685 17.18973,-7.10002 2.57159,-3.92474 1.97066,-16.95529 -0.92583,-20.07561 -3.38351,-3.64497 -9.96814,-5.63711 -16.42854,-4.97033 -6.05901,0.62534 -7.58208,1.86397 -6.68534,5.43685 0.31174,1.24207 0.14024,2.25831 -0.3811,2.25831 -0.52134,0 -1.4601,1.12418 -2.08613,2.49818 -0.62604,1.37399 -3.62327,4.08782 -6.66052,6.03072 -3.03725,1.94291 -5.52227,3.96873 -5.52227,4.50183 0,0.5331 -0.7875,0.98349 -1.75,1.00087 -4.22912,0.0764 -9.25,7.06046 -9.25,12.86683 0,4.53852 1.0297,4.82208 11.36446,3.12958 z m 146.21626,-50.15862 c 0.4721,-0.76387 2.8769,-0.92818 7.41355,-0.50654 5.68568,0.52843 7.0436,0.33889 8.86026,-1.23668 C 556.03454,143.10275 557,141.75569 557,141.1327 557,140.50972 558.125,140 559.5,140 c 1.42752,0 2.5,-0.577 2.5,-1.34501 0,-1.79058 3.24843,-4.65499 5.27905,-4.65499 0.89186,0 1.98143,-0.63592 2.42126,-1.41316 0.9028,-1.59537 7.99589,-3.27054 19.79969,-4.67608 10.616,-1.26411 12.62009,-0.76119 11.872,2.97924 -0.31522,1.57611 -0.13105,3.70814 0.40927,4.73783 0.5652,1.07711 0.62983,2.80541 0.15219,4.06972 -0.98218,2.59983 -5.2959,3.95211 -15.68346,4.91653 -3.9875,0.37022 -7.25,1.0585 -7.25,1.52952 0,0.47102 -9.25156,0.8564 -20.55902,0.8564 -15.03473,0 -20.37126,-0.3038 -19.86026,-1.13061 z M 444.92289,92.759389 C 444.05787,91.831056 439.97071,91.579223 429.3747,91.801378 417.77922,92.044488 415,91.84002 415,90.743826 c 0,-1.729977 7.28283,-4.986371 10.2073,-4.564017 1.30118,0.187917 3.14341,-0.609302 4.45943,-1.929809 1.34535,-1.349932 3.46064,-2.25 5.28782,-2.25 1.675,0 3.04545,-0.428848 3.04545,-0.952996 0,-1.351437 6.67591,-3.034843 12.06144,-3.041427 3.18485,-0.0039 5.2093,0.597999 6.70819,1.994423 1.18071,1.1 3.07413,2 4.20761,2 1.7409,0 1.95881,0.426961 1.40355,2.75 -0.9076,3.797175 -1.25043,4.25 -3.21757,4.25 -0.9453,0 -2.52687,0.943823 -3.51458,2.097385 -1.18044,1.378654 -2.51137,1.910268 -3.88391,1.551342 -1.14844,-0.300325 -2.89363,-0.114923 -3.87821,0.412003 -1.2336,0.660205 -2.15495,0.566523 -2.96363,-0.301341 z M 567.02073,86.5 c -0.0997,-1.115857 -0.4016,-1.447411 -0.68301,-0.75 -0.70459,1.746155 -3.93856,1.557644 -6.93257,-0.404106 -3.35284,-2.196865 -1.43728,-3.386671 4.48729,-2.787182 2.44743,0.247648 4.52454,0.560749 4.61581,0.695779 0.0913,0.13503 -0.1659,1.370509 -0.57148,2.745509 -0.62091,2.105023 -0.76563,2.184018 -0.91604,0.5 z"
         id="path101" />
    </g>
  </g>
</svg>
