<?xml version="1.0" encoding="UTF-8" standalone="no"?>
<svg
   xmlns:dc="http://purl.org/dc/elements/1.1/"
   xmlns:cc="http://creativecommons.org/ns#"
   xmlns:rdf="http://www.w3.org/1999/02/22-rdf-syntax-ns#"
   xmlns:svg="http://www.w3.org/2000/svg"
   xmlns="http://www.w3.org/2000/svg"
   version="1.1"
   id="svg51"
   width="758"
   height="418"
   viewBox="0 0 758 418">
  <metadata
     id="metadata57">
    <rdf:RDF>
      <cc:Work
         rdf:about="">
        <dc:format>image/svg+xml</dc:format>
        <dc:type
           rdf:resource="http://purl.org/dc/dcmitype/StillImage" />
        <dc:title></dc:title>
      </cc:Work>
    </rdf:RDF>
  </metadata>
  <defs
     id="defs55" />
  <g
     id="g59">
    <g
       id="g99"
       transform="matrix(0.58809099,0,0,0.58809099,-252.06333,292.4438)">
      <path
         style="fill:#575757;fill-opacity:1"
         d="m 194.72046,281.66821 c -0.98243,-2.49786 -0.91785,-27.41853 0.0721,-27.83488 0.43593,-0.18333 1.73767,-1.90833 2.89277,-3.83333 2.43965,-4.06577 1.6557,-8 -1.59412,-8 -2.75064,0 -3.62989,-1.88992 -1.75261,-3.7672 1.3137,-1.3137 1.35009,-1.7544 0.21913,-2.65404 -1.00202,-0.79708 -1.66596,-7.02252 -2.54268,-23.84156 -1.2966,-24.87401 -0.93742,-30.30968 2.06577,-31.26286 1.98342,-0.62952 2.26886,-1.39174 1.95779,-5.22807 -0.10326,-1.27337 0.51317,-2.52079 1.41709,-2.86765 0.8799,-0.33766 2.08222,-1.51528 2.67182,-2.61695 0.77435,-1.44688 0.76663,-1.8143 -0.0278,-1.32333 -0.60683,0.37504 -1.09977,0.0289 -1.09977,-0.77233 0,-1.55427 2.41062,-2.92206 3.40223,-1.93044 0.32878,0.32877 0.6333,1.53526 0.67672,2.6811 0.0434,1.14583 0.30592,1.52083 0.58333,0.83333 0.27741,-0.6875 1.11953,-1.25 1.87136,-1.25 0.75184,0 1.72684,-0.56323 2.16667,-1.25163 0.43983,-0.6884 2.03719,-1.88944 3.54969,-2.66898 1.5125,-0.77954 2.75,-1.79428 2.75,-2.25498 0,-0.4607 1.11817,-1.80987 2.48482,-2.99816 1.79747,-1.56288 2.3589,-2.87525 2.02961,-4.74434 -0.36237,-2.05686 0.21421,-3.04251 2.82706,-4.83286 1.80525,-1.23698 4.40192,-2.24905 5.77039,-2.24905 1.36847,0 2.92496,-0.43684 3.45886,-0.97074 0.53391,-0.53391 4.7522,-1.23498 9.37398,-1.55793 4.62177,-0.32295 9.22494,-1.02694 10.22925,-1.56444 C 251.17829,142.3694 252,142.24021 252,142.6198 c 0,0.3796 0.7875,-0.001 1.75,-0.84653 2.49206,-2.18833 4.7584,-2.6852 13.25,-2.90493 4.125,-0.10674 7.95,-0.51402 8.5,-0.90506 1.80651,-1.28441 9.79465,-2.00852 22.82947,-2.06944 10.35994,-0.0484 13.16619,0.24475 14.57874,1.52309 2.18448,1.97693 4.66613,1.99735 10.09179,0.0831 2.3383,-0.825 5.5631,-1.5 7.16622,-1.5 1.60312,0 4.2134,-0.96012 5.80061,-2.1336 1.80422,-1.33392 4.69379,-2.23399 7.70951,-2.40144 11.76942,-0.65352 21.41028,-1.7961 21.90465,-2.596 0.82022,-1.32715 20.16729,-1.08527 21.00028,0.26254 0.94231,1.52468 12.43932,0.42634 16.26936,-1.55426 1.59885,-0.8268 3.17242,-2.19491 3.4968,-3.04025 0.32439,-0.84535 1.24195,-1.53699 2.03902,-1.53699 1.84269,0 12.00202,-5.0345 12.45078,-6.17004 0.18547,-0.46933 3.31381,-2.2889 6.95185,-4.0435 3.63805,-1.7546 7.31873,-3.88684 8.17928,-4.73832 1.47082,-1.4553 6.62248,-5.04563 7.24646,-5.05025 0.15685,-10e-4 0.14228,4.79709 -0.0324,10.66277 -0.38993,13.09552 -0.0438,14.57573 3.74225,16.00482 2.63517,0.99466 3.07824,0.9006 3.60713,-0.76577 0.33162,-1.04484 1.2506,-1.89971 2.04217,-1.89971 0.79158,0 2.4174,-1.125 3.61295,-2.5 1.19555,-1.375 2.91757,-2.5 3.82672,-2.5 0.90915,0 1.9748,-0.3218 2.36811,-0.71512 0.39332,-0.39331 2.83082,-1.25638 5.41667,-1.91792 6.107,-1.56235 12.08615,-0.43672 21.4656,4.0411 3.97977,1.89997 9.15036,3.7503 11.4902,4.11183 2.33984,0.36154 4.00819,1.05547 3.70745,1.54208 -0.96789,1.56607 3.41778,4.37105 8.80172,5.62939 3.05042,0.71295 12.68714,1.24159 23.08313,1.26627 L 554.1931,136 l 4.41767,-3.88859 c 5.02225,-4.42076 6.58344,-4.78325 26.03368,-6.04472 12.17151,-0.78939 13.05253,-0.71472 19.29664,1.63556 3.59855,1.35449 6.83927,2.94236 7.20159,3.52861 0.36232,0.58624 -0.19656,1.98398 -1.24196,3.10608 -1.0454,1.1221 -1.90073,2.29283 -1.90075,2.60162 -2e-5,0.30879 -1.53228,1.78403 -3.40504,3.2783 -3.45302,2.75517 -14.62123,5.78063 -21.34493,5.78232 C 581.4625,145.99963 580,146.45 580,147 c 0,0.63492 -7.66667,1 -21,1 -14.93112,0 -21,0.32623 -21,1.12883 0,0.77698 -1.56487,0.92124 -5.02054,0.46283 C 527.12658,148.81525 521,151.06543 521,153.9915 c 0,0.96998 -0.675,2.32381 -1.5,3.0085 -1.11511,0.92546 -1.5,3.39658 -1.5,9.63054 v 8.38565 l 3.88858,1.55591 c 3.09761,1.23941 4.2215,2.42761 5.52522,5.84136 0.90015,2.357 3.27026,6.19399 5.26692,8.52663 2.9212,3.41277 3.71184,5.24892 4.04781,9.40054 0.46146,5.70211 1.98158,10.43846 4.01818,12.51974 1.1132,1.13761 0.71076,1.90857 -2.45777,4.70837 -2.08392,1.8414 -4.11717,3.36674 -4.51834,3.38963 -0.40118,0.0229 -2.59599,2.06663 -4.87736,4.54163 -2.28138,2.475 -4.96409,4.5 -5.96158,4.5 -0.9975,0 -2.09174,0.45 -2.43166,1 -0.33992,0.55 -1.68718,1 -2.99392,1 -1.30673,0 -3.64268,0.52017 -5.19098,1.15593 -1.54831,0.63577 -3.2651,1.20336 -3.8151,1.26132 -2.22835,0.23484 -7.5,3.72158 -7.5,4.9606 0,1.26625 -1.76066,1.70722 -18.97097,4.75147 -3.00904,0.53225 -5.70904,1.32853 -6,1.7695 -0.95154,1.44211 -4.44745,2.81451 -8.9058,3.49617 -2.40722,0.36805 -5.31985,1.32975 -6.47251,2.1371 -1.22001,0.85453 -4.37255,1.46791 -7.54449,1.46791 -3.55405,0 -6.05359,0.54737 -7.18814,1.57413 -0.95667,0.86577 -4.14211,1.90289 -7.07875,2.30471 -2.93663,0.40181 -6.46434,1.44416 -7.83934,2.31633 -1.422,0.90197 -5.6199,1.79056 -9.7354,2.06073 -3.97946,0.26123 -7.9095,1.03443 -8.7334,1.71821 -0.82391,0.68378 -3.79749,1.40733 -6.60796,1.60789 -2.81048,0.20057 -6.48708,1.05166 -8.17023,1.89133 -4.32192,2.15605 -10.38732,1.9158 -14.41076,-0.57082 -3.13841,-1.93965 -4.38901,-2.05558 -16.61803,-1.5405 -15.82969,0.66673 -21.7158,1.43444 -23.72422,3.09431 -2.55019,2.10761 -4.69056,2.44872 -6.66916,1.06285 -1.41404,-0.99043 -8.29483,-1.43839 -26.95334,-1.75476 -21.32247,-0.36153 -25.40968,-0.67354 -27.43854,-2.09461 C 280.15103,263.41748 277.35704,263 270.76392,263 c -4.90816,0 -9.60715,-0.50966 -10.63873,-1.15389 -1.46013,-0.91187 -2.34295,-0.80699 -4.20894,0.5 -2.43324,1.70431 -9.91625,2.31321 -9.91625,0.8069 0,-0.78302 -0.8204,-1.8832 -5.08476,-6.8188 -0.87161,-1.00882 -2.73919,-2.73421 -4.15016,-3.83421 -1.41098,-1.1 -2.72284,-3.125 -2.91525,-4.5 -0.25244,-1.80399 -1.04584,-2.58118 -2.84983,-2.7916 -1.375,-0.16038 -3.4,-0.68532 -4.5,-1.16653 -1.1,-0.48122 -2.97853,-1.08648 -4.1745,-1.34504 -2.02918,-0.43869 -2.15904,-0.13331 -1.94301,4.56918 0.18943,4.12363 -0.2302,5.6021 -2.30941,8.13664 -1.39749,1.70354 -2.93822,3.3814 -3.42382,3.72857 -0.48561,0.34718 -1.19081,3.49718 -1.56712,7 C 212.3447,272.99572 210.45413,277 207.95058,277 c -0.86258,0 -2.44183,0.66069 -3.50945,1.4682 -1.06762,0.8075 -3.37063,1.4825 -5.11781,1.5 -2.2081,0.0221 -3.28426,0.56538 -3.52954,1.7818 -0.32801,1.62672 -0.40362,1.62096 -1.07332,-0.0818 z M 396.45125,194.04046 C 397.30306,193.33352 398,193.07797 398,193.47258 c 0,0.3946 1.99263,-0.4503 4.42807,-1.87756 3.62728,-2.12573 5.69631,-2.59502 11.44098,-2.59502 3.85711,0 7.29103,-0.45 7.63095,-1 0.33992,-0.55 1.45147,-1 2.47012,-1 1.01865,0 3.01709,-1.38453 4.44099,-3.07673 2.26566,-2.69259 2.58889,-3.98442 2.58889,-10.34699 0,-8.0304 -1.02332,-10.00489 -6.70034,-12.92827 -3.57913,-1.84307 -10.447,-2.17471 -13.30959,-0.64269 -1.03315,0.55292 -3.34997,3.76616 -5.14849,7.14053 -2.33909,4.38858 -4.16165,6.50776 -6.40186,7.44378 -1.72249,0.71971 -4.21359,2.44869 -5.53576,3.84219 -1.32218,1.39349 -3.07896,2.54951 -3.90396,2.56893 -2.45327,0.0577 -8,7.52178 -8,10.76533 0,1.59532 0.32306,3.22364 0.71791,3.61849 1.13973,1.13974 12.02407,0.0745 13.73334,-1.34411 z m -95.8868,-2.13539 C 301.6999,190.85728 303.09669,190 303.66843,190 c 0.57174,0 2.18673,-1.0125 3.58886,-2.25 1.40214,-1.2375 3.69704,-3.15 5.09978,-4.25 1.40275,-1.1 2.57126,-2.7875 2.59669,-3.75 0.0254,-0.9625 0.94624,-2.65 2.04624,-3.75 1.1,-1.1 2,-2.675 2,-3.5 0,-0.825 0.45,-1.5 1,-1.5 0.55,0 0.99386,-1.0125 0.98635,-2.25 -0.0226,-3.71742 -1.14034,-6.75 -2.48797,-6.75 -0.6976,0 -2.01718,-1.14284 -2.9324,-2.53965 -1.58722,-2.4224 -2.04105,-2.52628 -9.83034,-2.25 -8.11708,0.2879 -8.17163,0.30773 -9.05086,3.28965 -0.48651,1.65 -2.59,4.35 -4.67444,6 -2.08443,1.65 -4.84571,4.6875 -6.13618,6.75 -1.29046,2.0625 -2.69007,3.75 -3.11023,3.75 -0.42016,0 -0.76393,1.52252 -0.76393,3.38337 0,2.48185 -0.50577,3.51563 -1.89815,3.87975 -2.01259,0.5263 -4.46875,3.80997 -5.5393,7.40555 -0.88482,2.9718 0.81606,3.31003 13.43745,2.67215 8.44665,-0.42689 10.90372,-0.90322 12.56445,-2.43575 z M 310.51801,143 c 0.69741,0 1.52703,-0.675 1.84362,-1.5 0.45608,-1.18854 -0.30035,-1.49682 -3.64301,-1.48469 -4.8277,0.0175 -7.31744,1.20676 -6.22546,2.97363 0.46633,0.75452 1.88402,0.98562 3.75312,0.6118 C 307.89833,143.27033 309.82061,143 310.51801,143 Z M 444.94612,93.945537 c -0.79537,-0.503201 -7.87274,-0.921802 -15.7275,-0.930224 -12.32121,-0.01321 -14.36801,-0.241042 -14.91248,-1.659921 -0.39238,-1.022521 0.0923,-2.144394 1.28138,-2.965894 1.05186,-0.726707 2.36248,-1.696825 2.91248,-2.155818 1.51203,-1.261834 4.70697,-2.498708 7.5,-2.903515 2.31285,-0.335212 11.0146,-3.579593 18.75,-6.990795 C 446.5375,75.551107 448,74.477278 448,73.953083 448,73.428887 449.15156,73 450.55902,73 c 1.40746,0 2.32003,0.38668 2.02794,0.859288 -0.29208,0.472609 1.29573,1.576874 3.52848,2.453924 2.23275,0.877049 3.79455,2.023403 3.47067,2.547453 -0.32886,0.532121 0.25699,0.731619 1.32689,0.451835 3.20964,-0.83934 4.24723,2.614503 2.1746,7.238661 -1.98544,4.429645 -4.92175,6.356022 -10.0876,6.618006 -1.925,0.09763 -4.19925,0.518102 -5.05388,0.934392 -0.85464,0.41629 -2.20464,0.34518 -3,-0.158022 z M 563,89.090476 c -2.58808,-0.369403 -5.6684,-1.66387 -7.25,-3.046722 -4.43919,-3.881348 -3.91071,-4.196156 7.07571,-4.214889 6.89158,-0.01175 8.03531,0.428749 6.35864,2.449005 -0.60536,0.729411 -0.842,2.315286 -0.52587,3.524166 0.31613,1.20888 0.1848,2.137838 -0.29185,2.064351 C 567.88998,89.7929 565.475,89.44374 563,89.090476 Z"
         id="path103" />
      <path
         style="fill:#333333;fill-opacity:1"
         d="m 384.52544,264.32015 -4.97455,-2.58673 -19.52545,0.86468 c -10.73899,0.47557 -22.22544,0.84579 -25.52544,0.82271 -38.27768,-0.26778 -48.98673,-0.67315 -53.54516,-2.02686 -3.25553,-0.96679 -7.36954,-1.30056 -12.03626,-0.97649 -4.32291,0.30019 -7.78308,0.0596 -8.8656,-0.61645 -1.36963,-0.85534 -2.31521,-0.73074 -4.13673,0.5451 -4.12309,2.88792 -6.96654,2.0672 -13.15304,-3.79644 -3.15523,-2.99057 -6.68934,-7.2649 -7.85357,-9.49852 -2.51626,-4.82756 -3.35182,-5.4627 -5.56045,-4.22669 -1.19619,0.66942 -2.25696,0.3964 -3.75792,-0.96722 C 218.50965,235.4236 216.61562,234 215.13759,234 c -1.97027,0 -11.15179,-7.98631 -11.14343,-9.69284 0.003,-0.65606 -0.90312,-2.73341 -2.01407,-4.61633 -1.11095,-1.88292 -1.79068,-4.04614 -1.5105,-4.80716 0.75139,-2.04097 -1.02754,-4.26728 -2.85073,-3.56766 -0.90502,0.34729 -1.90569,2.44404 -2.33647,4.89572 -0.68218,3.88242 -0.82746,3.38917 -1.53503,-5.21173 -0.42985,-5.225 -0.84029,-13.66183 -0.91208,-18.74852 -0.12464,-8.8314 -0.009,-9.36087 2.5577,-11.73987 2.1485,-1.99117 2.48636,-2.86855 1.6828,-4.37001 C 195.91583,173.97421 196.56422,173 199.16667,173 200.175,173 201,172.55 201,172 c 0,-0.55 0.94754,-1 2.10564,-1 1.15811,0 3.44621,-1.12801 5.08468,-2.50669 1.63846,-1.37867 3.3941,-2.25015 3.90141,-1.93661 0.50732,0.31353 1.2291,-0.24596 1.60395,-1.24332 0.37486,-0.99736 1.94668,-3.00642 3.49294,-4.46459 1.90663,-1.79801 2.81138,-3.64845 2.81138,-5.75 0,-3.56969 3.38356,-7.54932 5.67196,-6.67118 0.83452,0.32024 3.38723,-0.23567 5.67268,-1.23536 2.28545,-0.99969 6.63036,-1.93804 9.65536,-2.08523 3.025,-0.14719 7.975,-1.18563 11,-2.30763 3.025,-1.12201 9.325,-2.32337 14,-2.6697 4.675,-0.34633 8.95,-0.90991 9.5,-1.2524 0.55,-0.34248 8.3125,-0.93995 17.25,-1.32769 12.28387,-0.53292 16.25,-0.41479 16.25,0.484 0,0.81724 -1.0943,0.98369 -3.5,0.53238 -2.66537,-0.50003 -3.5,-0.31791 -3.5,0.76371 0,0.78584 -1.37373,1.69506 -3.07524,2.03536 -2.24139,0.44828 -2.98075,1.09225 -2.72677,2.375 0.25527,1.28922 1.27839,1.74554 3.82524,1.70608 5.19922,-0.0806 11.16424,-1.14907 11.861,-2.12466 1.19327,-1.67078 6.69657,-3.59112 14.022,-4.89289 4.07343,-0.72387 7.67343,-1.6978 8,-2.16429 0.77675,-1.10954 7.71575,-3.23478 11.84771,-3.62866 1.78967,-0.1706 3.55217,-0.60841 3.91667,-0.97291 C 350.03511,131.29823 353.55833,131 357.5,131 c 3.94167,0 7.44861,-0.28195 7.79321,-0.62655 1.18502,-1.18501 15.21284,-1.35416 20.28154,-0.24456 3.80645,0.83328 6.86897,0.8083 12.25379,-0.1 6.27673,-1.05871 7.25502,-1.51368 7.78365,-3.61991 0.36803,-1.46633 1.33324,-2.40901 2.46658,-2.40901 2.54117,0 12.64413,-4.70434 13.62649,-6.34503 0.43711,-0.73004 3.49474,-2.57541 6.79474,-4.10082 3.3,-1.52541 7.4625,-3.4504 9.25,-4.27775 1.7875,-0.82736 3.25,-2.20301 3.25,-3.05701 0,-0.854 0.27971,-1.27302 0.62157,-0.93115 0.34187,0.34187 0.4716,5.70437 0.2883,11.91667 -0.46341,15.70558 -0.0732,23.07613 1.26557,23.90352 1.87358,1.15793 3.87686,-0.18506 3.68892,-2.47305 -0.32848,-3.99886 0.13362,-5.63538 1.59123,-5.63538 0.80058,0 3.07332,-1.09782 5.05053,-2.43959 3.79724,-2.57688 9.49576,-4.04965 20.99143,-5.42519 8.01206,-0.9587 12.4991,-0.0461 15.75459,3.20431 1.23632,1.23439 4.3893,3.28003 7.00662,4.54586 4.18921,2.02605 4.73226,2.64938 4.5373,5.20806 -0.12648,1.6598 -0.79897,2.90655 -1.56778,2.90655 -0.74047,0 -1.0682,0.45 -0.72828,1 0.33992,0.55 2.39148,1 4.55902,1 2.27704,0 3.94098,0.48002 3.94098,1.13691 0,1.11101 6.15646,0.81687 16.43007,-0.78499 4.22336,-0.65851 10.9468,2.00661 10.26671,4.06963 -0.19553,0.59315 -3.06684,1.21072 -6.38069,1.37239 -6.48852,0.31655 -5.79275,-0.27103 -9.71706,8.20606 -0.68175,1.47269 -1.01412,5.7874 -0.80884,10.5 l 0.34849,8 3.93066,1.67574 c 2.24912,0.95885 3.93066,2.36343 3.93066,3.28324 0,2.32426 4.84586,11.54102 6.06787,11.54102 1.5328,0 3.93213,6.41166 3.93213,10.50772 0,1.96458 0.88797,5.31253 1.97328,7.4399 l 1.97327,3.86794 -3.97615,3.59222 C 533.78351,219.3835 531.4684,221 530.8257,221 c -0.64269,0 -3.08335,1.99841 -5.42367,4.44091 -3.04814,3.18121 -5.33969,4.62443 -8.07859,5.08789 -2.10289,0.35584 -5.24145,1.28243 -6.97457,2.05909 -1.73312,0.77666 -3.84406,1.41211 -4.69098,1.41211 -0.84692,0 -1.79657,0.41538 -2.11034,0.92306 -0.31377,0.50769 -1.91925,1.21931 -3.56774,1.58138 -1.68974,0.37112 -2.71945,1.10782 -2.36042,1.68874 0.94732,1.53279 -1.63658,2.77419 -5.81037,2.79151 -2.03004,0.008 -3.9691,0.46531 -4.30902,1.01531 -0.33992,0.55 -1.94368,1 -3.56392,1 -1.62024,0 -5.30618,1.1555 -8.19098,2.56778 -2.88481,1.41227 -6.6464,2.7118 -8.35911,2.88784 -1.7127,0.17603 -4.1877,1.01114 -5.5,1.8558 -1.31229,0.84465 -5.27745,1.741 -8.81145,1.99187 -4.3635,0.30975 -6.80566,0.97609 -7.61024,2.07642 -0.81178,1.11018 -2.72421,1.62147 -6.07454,1.62403 -2.98808,0.002 -6.06699,0.72164 -7.91674,1.84967 -1.86961,1.14014 -5.77659,2.04268 -10.21829,2.36048 -3.95522,0.28299 -8.21807,1.18663 -9.47302,2.00809 -1.25494,0.82146 -5.31448,1.81788 -9.02119,2.21426 -3.70671,0.39638 -6.99577,1.13538 -7.30902,1.64223 -1.0239,1.6567 -5.85319,0.87953 -10.92606,-1.75832 z m -90.19569,-68.47183 c 4.91258,-0.13661 6.07128,-0.53074 7.36501,-2.50522 0.84439,-1.2887 2.36255,-2.3431 3.37369,-2.3431 2.30827,0 10.75882,-8.4636 11.53388,-11.5517 0.31799,-1.26697 1.18903,-2.53799 1.93563,-2.82449 2.60564,-0.99988 4.53157,-6.33683 3.84228,-10.64739 -0.49706,-3.10843 -1.31694,-4.40945 -3.48545,-5.53083 -1.55953,-0.80646 -3.31467,-2.36163 -3.90033,-3.45594 -1.16209,-2.17138 -4.29261,-2.47697 -13.74446,-1.34167 -3.45219,0.41466 -5.25,1.09656 -5.25,1.99131 0,0.74839 -0.675,1.36071 -1.5,1.36071 -0.89828,0 -1.5,0.92206 -1.5,2.29855 0,2.07267 -3.37299,6.48394 -10.50531,13.7391 -1.37208,1.39571 -2.50246,3.19571 -2.51197,4 -0.009,0.80429 -1.1345,2.52208 -2.5,3.81731 -1.36549,1.29523 -2.48272,3.05979 -2.48272,3.92126 0,0.86146 -0.68585,2.32415 -1.52411,3.25042 -0.83826,0.92627 -1.25418,2.38756 -0.92426,3.24732 0.79366,2.06824 6.95571,3.70069 11.94837,3.16536 2.2,-0.23589 6.62339,-0.50184 9.82975,-0.591 z m 98.03471,0.17969 c 3.22545,-0.52823 7.72545,-1.85595 10,-2.95049 2.27455,-1.09455 7.28554,-2.27657 11.13554,-2.62672 8.31782,-0.75649 14.78298,-3.42685 17.18973,-7.10002 2.57159,-3.92474 1.97066,-16.95529 -0.92583,-20.07561 -3.38351,-3.64497 -9.96814,-5.63711 -16.42854,-4.97033 -6.05901,0.62534 -7.58208,1.86397 -6.68534,5.43685 0.31174,1.24207 0.14024,2.25831 -0.3811,2.25831 -0.52134,0 -1.4601,1.12418 -2.08613,2.49818 -0.62604,1.37399 -3.62327,4.08782 -6.66052,6.03072 -3.03725,1.94291 -5.52227,3.96873 -5.52227,4.50183 0,0.5331 -0.7875,0.98349 -1.75,1.00087 -4.22912,0.0764 -9.25,7.06046 -9.25,12.86683 0,4.53852 1.0297,4.82208 11.36446,3.12958 z m 146.21626,-50.15862 c 0.4721,-0.76387 2.8769,-0.92818 7.41355,-0.50654 5.68568,0.52843 7.0436,0.33889 8.86026,-1.23668 C 556.03454,143.10275 557,141.75569 557,141.1327 557,140.50972 558.125,140 559.5,140 c 1.42752,0 2.5,-0.577 2.5,-1.34501 0,-1.79058 3.24843,-4.65499 5.27905,-4.65499 0.89186,0 1.98143,-0.63592 2.42126,-1.41316 0.9028,-1.59537 7.99589,-3.27054 19.79969,-4.67608 10.616,-1.26411 12.62009,-0.76119 11.872,2.97924 -0.31522,1.57611 -0.13105,3.70814 0.40927,4.73783 0.5652,1.07711 0.62983,2.80541 0.15219,4.06972 -0.98218,2.59983 -5.2959,3.95211 -15.68346,4.91653 -3.9875,0.37022 -7.25,1.0585 -7.25,1.52952 0,0.47102 -9.25156,0.8564 -20.55902,0.8564 -15.03473,0 -20.37126,-0.3038 -19.86026,-1.13061 z M 444.92289,92.759389 C 444.05787,91.831056 439.97071,91.579223 429.3747,91.801378 417.77922,92.044488 415,91.84002 415,90.743826 c 0,-1.729977 7.28283,-4.986371 10.2073,-4.564017 1.30118,0.187917 3.14341,-0.609302 4.45943,-1.929809 1.34535,-1.349932 3.46064,-2.25 5.28782,-2.25 1.675,0 3.04545,-0.428848 3.04545,-0.952996 0,-1.351437 6.67591,-3.034843 12.06144,-3.041427 3.18485,-0.0039 5.2093,0.597999 6.70819,1.994423 1.18071,1.1 3.07413,2 4.20761,2 1.7409,0 1.95881,0.426961 1.40355,2.75 -0.9076,3.797175 -1.25043,4.25 -3.21757,4.25 -0.9453,0 -2.52687,0.943823 -3.51458,2.097385 -1.18044,1.378654 -2.51137,1.910268 -3.88391,1.551342 -1.14844,-0.300325 -2.89363,-0.114923 -3.87821,0.412003 -1.2336,0.660205 -2.15495,0.566523 -2.96363,-0.301341 z M 567.02073,86.5 c -0.0997,-1.115857 -0.4016,-1.447411 -0.68301,-0.75 -0.70459,1.746155 -3.93856,1.557644 -6.93257,-0.404106 -3.35284,-2.196865 -1.43728,-3.386671 4.48729,-2.787182 2.44743,0.247648 4.52454,0.560749 4.61581,0.695779 0.0913,0.13503 -0.1659,1.370509 -0.57148,2.745509 -0.62091,2.105023 -0.76563,2.184018 -0.91604,0.5 z"
         id="path101" />
    </g>
  </g>
</svg>
