<?xml version="1.0" encoding="UTF-8" standalone="no"?>
<svg
   xmlns:dc="http://purl.org/dc/elements/1.1/"
   xmlns:cc="http://creativecommons.org/ns#"
   xmlns:rdf="http://www.w3.org/1999/02/22-rdf-syntax-ns#"
   xmlns:svg="http://www.w3.org/2000/svg"
   xmlns="http://www.w3.org/2000/svg"
   version="1.1"
   id="svg51"
   width="758"
   height="418"
   viewBox="0 0 758 418">
  <metadata
     id="metadata57">
    <rdf:RDF>
      <cc:Work
         rdf:about="">
        <dc:format>image/svg+xml</dc:format>
        <dc:type
           rdf:resource="http://purl.org/dc/dcmitype/StillImage" />
        <dc:title></dc:title>
      </cc:Work>
    </rdf:RDF>
  </metadata>
  <defs
     id="defs55" />
  <g
     id="g59">
    <g
       id="g99"
       transform="matrix(0.58809099,0,0,0.58809099,-252.06333,292.4438)">
      <path
         style="fill:#333333;fill-opacity:1"
         d="m 384.52544,264.32015 -4.97455,-2.58673 -19.52545,0.86468 c -10.73899,0.47557 -22.22544,0.84579 -25.52544,0.82271 -38.27768,-0.26778 -48.98673,-0.67315 -53.54516,-2.02686 -3.25553,-0.96679 -7.36954,-1.30056 -12.03626,-0.97649 -4.32291,0.30019 -7.78308,0.0596 -8.8656,-0.61645 -1.36963,-0.85534 -2.31521,-0.73074 -4.13673,0.5451 -4.12309,2.88792 -6.96654,2.0672 -13.15304,-3.79644 -3.15523,-2.99057 -6.68934,-7.2649 -7.85357,-9.49852 -2.51626,-4.82756 -3.35182,-5.4627 -5.56045,-4.22669 -1.19619,0.66942 -2.25696,0.3964 -3.75792,-0.96722 C 218.50965,235.4236 216.61562,234 215.13759,234 c -1.97027,0 -11.15179,-7.98631 -11.14343,-9.69284 0.003,-0.65606 -0.90312,-2.73341 -2.01407,-4.61633 -1.11095,-1.88292 -1.79068,-4.04614 -1.5105,-4.80716 0.75139,-2.04097 -1.02754,-4.26728 -2.85073,-3.56766 -0.90502,0.34729 -1.90569,2.44404 -2.33647,4.89572 -0.68218,3.88242 -0.82746,3.38917 -1.53503,-5.21173 -0.42985,-5.225 -0.84029,-13.66183 -0.91208,-18.74852 -0.12464,-8.8314 -0.009,-9.36087 2.5577,-11.73987 2.1485,-1.99117 2.48636,-2.86855 1.6828,-4.37001 C 195.91583,173.97421 196.56422,173 199.16667,173 200.175,173 201,172.55 201,172 c 0,-0.55 0.94754,-1 2.10564,-1 1.15811,0 3.44621,-1.12801 5.08468,-2.50669 1.63846,-1.37867 3.3941,-2.25015 3.90141,-1.93661 0.50732,0.31353 1.2291,-0.24596 1.60395,-1.24332 0.37486,-0.99736 1.94668,-3.00642 3.49294,-4.46459 1.90663,-1.79801 2.81138,-3.64845 2.81138,-5.75 0,-3.56969 3.38356,-7.54932 5.67196,-6.67118 0.83452,0.32024 3.38723,-0.23567 5.67268,-1.23536 2.28545,-0.99969 6.63036,-1.93804 9.65536,-2.08523 3.025,-0.14719 7.975,-1.18563 11,-2.30763 3.025,-1.12201 9.325,-2.32337 14,-2.6697 4.675,-0.34633 8.95,-0.90991 9.5,-1.2524 0.55,-0.34248 8.3125,-0.93995 17.25,-1.32769 12.28387,-0.53292 16.25,-0.41479 16.25,0.484 0,0.81724 -1.0943,0.98369 -3.5,0.53238 -2.66537,-0.50003 -3.5,-0.31791 -3.5,0.76371 0,0.78584 -1.37373,1.69506 -3.07524,2.03536 -2.24139,0.44828 -2.98075,1.09225 -2.72677,2.375 0.25527,1.28922 1.27839,1.74554 3.82524,1.70608 5.19922,-0.0806 11.16424,-1.14907 11.861,-2.12466 1.19327,-1.67078 6.69657,-3.59112 14.022,-4.89289 4.07343,-0.72387 7.67343,-1.6978 8,-2.16429 0.77675,-1.10954 7.71575,-3.23478 11.84771,-3.62866 1.78967,-0.1706 3.55217,-0.60841 3.91667,-0.97291 C 350.03511,131.29823 353.55833,131 357.5,131 c 3.94167,0 7.44861,-0.28195 7.79321,-0.62655 1.18502,-1.18501 15.21284,-1.35416 20.28154,-0.24456 3.80645,0.83328 6.86897,0.8083 12.25379,-0.1 6.27673,-1.05871 7.25502,-1.51368 7.78365,-3.61991 0.36803,-1.46633 1.33324,-2.40901 2.46658,-2.40901 2.54117,0 12.64413,-4.70434 13.62649,-6.34503 0.43711,-0.73004 3.49474,-2.57541 6.79474,-4.10082 3.3,-1.52541 7.4625,-3.4504 9.25,-4.27775 1.7875,-0.82736 3.25,-2.20301 3.25,-3.05701 0,-0.854 0.27971,-1.27302 0.62157,-0.93115 0.34187,0.34187 0.4716,5.70437 0.2883,11.91667 -0.46341,15.70558 -0.0732,23.07613 1.26557,23.90352 1.87358,1.15793 3.87686,-0.18506 3.68892,-2.47305 -0.32848,-3.99886 0.13362,-5.63538 1.59123,-5.63538 0.80058,0 3.07332,-1.09782 5.05053,-2.43959 3.79724,-2.57688 9.49576,-4.04965 20.99143,-5.42519 8.01206,-0.9587 12.4991,-0.0461 15.75459,3.20431 1.23632,1.23439 4.3893,3.28003 7.00662,4.54586 4.18921,2.02605 4.73226,2.64938 4.5373,5.20806 -0.12648,1.6598 -0.79897,2.90655 -1.56778,2.90655 -0.74047,0 -1.0682,0.45 -0.72828,1 0.33992,0.55 2.39148,1 4.55902,1 2.27704,0 3.94098,0.48002 3.94098,1.13691 0,1.11101 6.15646,0.81687 16.43007,-0.78499 4.22336,-0.65851 10.9468,2.00661 10.26671,4.06963 -0.19553,0.59315 -3.06684,1.21072 -6.38069,1.37239 -6.48852,0.31655 -5.79275,-0.27103 -9.71706,8.20606 -0.68175,1.47269 -1.01412,5.7874 -0.80884,10.5 l 0.34849,8 3.93066,1.67574 c 2.24912,0.95885 3.93066,2.36343 3.93066,3.28324 0,2.32426 4.84586,11.54102 6.06787,11.54102 1.5328,0 3.93213,6.41166 3.93213,10.50772 0,1.96458 0.88797,5.31253 1.97328,7.4399 l 1.97327,3.86794 -3.97615,3.59222 C 533.78351,219.3835 531.4684,221 530.8257,221 c -0.64269,0 -3.08335,1.99841 -5.42367,4.44091 -3.04814,3.18121 -5.33969,4.62443 -8.07859,5.08789 -2.10289,0.35584 -5.24145,1.28243 -6.97457,2.05909 -1.73312,0.77666 -3.84406,1.41211 -4.69098,1.41211 -0.84692,0 -1.79657,0.41538 -2.11034,0.92306 -0.31377,0.50769 -1.91925,1.21931 -3.56774,1.58138 -1.68974,0.37112 -2.71945,1.10782 -2.36042,1.68874 0.94732,1.53279 -1.63658,2.77419 -5.81037,2.79151 -2.03004,0.008 -3.9691,0.46531 -4.30902,1.01531 -0.33992,0.55 -1.94368,1 -3.56392,1 -1.62024,0 -5.30618,1.1555 -8.19098,2.56778 -2.88481,1.41227 -6.6464,2.7118 -8.35911,2.88784 -1.7127,0.17603 -4.1877,1.01114 -5.5,1.8558 -1.31229,0.84465 -5.27745,1.741 -8.81145,1.99187 -4.3635,0.30975 -6.80566,0.97609 -7.61024,2.07642 -0.81178,1.11018 -2.72421,1.62147 -6.07454,1.62403 -2.98808,0.002 -6.06699,0.72164 -7.91674,1.84967 -1.86961,1.14014 -5.77659,2.04268 -10.21829,2.36048 -3.95522,0.28299 -8.21807,1.18663 -9.47302,2.00809 -1.25494,0.82146 -5.31448,1.81788 -9.02119,2.21426 -3.70671,0.39638 -6.99577,1.13538 -7.30902,1.64223 -1.0239,1.6567 -5.85319,0.87953 -10.92606,-1.75832 z m -90.19569,-68.47183 c 4.91258,-0.13661 6.07128,-0.53074 7.36501,-2.50522 0.84439,-1.2887 2.36255,-2.3431 3.37369,-2.3431 2.30827,0 10.75882,-8.4636 11.53388,-11.5517 0.31799,-1.26697 1.18903,-2.53799 1.93563,-2.82449 2.60564,-0.99988 4.53157,-6.33683 3.84228,-10.64739 -0.49706,-3.10843 -1.31694,-4.40945 -3.48545,-5.53083 -1.55953,-0.80646 -3.31467,-2.36163 -3.90033,-3.45594 -1.16209,-2.17138 -4.29261,-2.47697 -13.74446,-1.34167 -3.45219,0.41466 -5.25,1.09656 -5.25,1.99131 0,0.74839 -0.675,1.36071 -1.5,1.36071 -0.89828,0 -1.5,0.92206 -1.5,2.29855 0,2.07267 -3.37299,6.48394 -10.50531,13.7391 -1.37208,1.39571 -2.50246,3.19571 -2.51197,4 -0.009,0.80429 -1.1345,2.52208 -2.5,3.81731 -1.36549,1.29523 -2.48272,3.05979 -2.48272,3.92126 0,0.86146 -0.68585,2.32415 -1.52411,3.25042 -0.83826,0.92627 -1.25418,2.38756 -0.92426,3.24732 0.79366,2.06824 6.95571,3.70069 11.94837,3.16536 2.2,-0.23589 6.62339,-0.50184 9.82975,-0.591 z m 98.03471,0.17969 c 3.22545,-0.52823 7.72545,-1.85595 10,-2.95049 2.27455,-1.09455 7.28554,-2.27657 11.13554,-2.62672 8.31782,-0.75649 14.78298,-3.42685 17.18973,-7.10002 2.57159,-3.92474 1.97066,-16.95529 -0.92583,-20.07561 -3.38351,-3.64497 -9.96814,-5.63711 -16.42854,-4.97033 -6.05901,0.62534 -7.58208,1.86397 -6.68534,5.43685 0.31174,1.24207 0.14024,2.25831 -0.3811,2.25831 -0.52134,0 -1.4601,1.12418 -2.08613,2.49818 -0.62604,1.37399 -3.62327,4.08782 -6.66052,6.03072 -3.03725,1.94291 -5.52227,3.96873 -5.52227,4.50183 0,0.5331 -0.7875,0.98349 -1.75,1.00087 -4.22912,0.0764 -9.25,7.06046 -9.25,12.86683 0,4.53852 1.0297,4.82208 11.36446,3.12958 z m 146.21626,-50.15862 c 0.4721,-0.76387 2.8769,-0.92818 7.41355,-0.50654 5.68568,0.52843 7.0436,0.33889 8.86026,-1.23668 C 556.03454,143.10275 557,141.75569 557,141.1327 557,140.50972 558.125,140 559.5,140 c 1.42752,0 2.5,-0.577 2.5,-1.34501 0,-1.79058 3.24843,-4.65499 5.27905,-4.65499 0.89186,0 1.98143,-0.63592 2.42126,-1.41316 0.9028,-1.59537 7.99589,-3.27054 19.79969,-4.67608 10.616,-1.26411 12.62009,-0.76119 11.872,2.97924 -0.31522,1.57611 -0.13105,3.70814 0.40927,4.73783 0.5652,1.07711 0.62983,2.80541 0.15219,4.06972 -0.98218,2.59983 -5.2959,3.95211 -15.68346,4.91653 -3.9875,0.37022 -7.25,1.0585 -7.25,1.52952 0,0.47102 -9.25156,0.8564 -20.55902,0.8564 -15.03473,0 -20.37126,-0.3038 -19.86026,-1.13061 z M 444.92289,92.759389 C 444.05787,91.831056 439.97071,91.579223 429.3747,91.801378 417.77922,92.044488 415,91.84002 415,90.743826 c 0,-1.729977 7.28283,-4.986371 10.2073,-4.564017 1.30118,0.187917 3.14341,-0.609302 4.45943,-1.929809 1.34535,-1.349932 3.46064,-2.25 5.28782,-2.25 1.675,0 3.04545,-0.428848 3.04545,-0.952996 0,-1.351437 6.67591,-3.034843 12.06144,-3.041427 3.18485,-0.0039 5.2093,0.597999 6.70819,1.994423 1.18071,1.1 3.07413,2 4.20761,2 1.7409,0 1.95881,0.426961 1.40355,2.75 -0.9076,3.797175 -1.25043,4.25 -3.21757,4.25 -0.9453,0 -2.52687,0.943823 -3.51458,2.097385 -1.18044,1.378654 -2.51137,1.910268 -3.88391,1.551342 -1.14844,-0.300325 -2.89363,-0.114923 -3.87821,0.412003 -1.2336,0.660205 -2.15495,0.566523 -2.96363,-0.301341 z M 567.02073,86.5 c -0.0997,-1.115857 -0.4016,-1.447411 -0.68301,-0.75 -0.70459,1.746155 -3.93856,1.557644 -6.93257,-0.404106 -3.35284,-2.196865 -1.43728,-3.386671 4.48729,-2.787182 2.44743,0.247648 4.52454,0.560749 4.61581,0.695779 0.0913,0.13503 -0.1659,1.370509 -0.57148,2.745509 -0.62091,2.105023 -0.76563,2.184018 -0.91604,0.5 z"
         id="path101" />
    </g>
  </g>
</svg>
